<svg xmlns="http://www.w3.org/2000/svg" version="1.1" xmlns:xlink="http://www.w3.org/1999/xlink" xmlns:svgjs="http://svgjs.com/svgjs" width="512" height="512" x="0" y="0" viewBox="0 0 512.037 512.037" style="enable-background:new 0 0 512 512" xml:space="preserve" class=""><g><path fill="#ffe4c1" d="M87.519 512a15 15 0 0 1-15-15V263.007c0-20.614 7.391-38.457 21.967-53.033l103.427-103.427a14.998 14.998 0 0 1 23.546 3.02l116 197.847a14.992 14.992 0 0 1 2.061 7.587v74.766c0 26.489-12.992 49.557-35.646 63.287l-9.159 5.55c-13.667 8.283-21.194 21.647-21.194 37.631V497c0 8.284-6.716 15-15 15zm171-15.002h.01z" data-original="#ffe4c1" class=""></path><path fill="#ec623f" d="M398.269 330h-157.5c-22.745 0-41.25-18.505-41.25-41.25V41.25c0-22.745 18.505-41.25 41.25-41.25h157.5c22.745 0 41.25 18.505 41.25 41.25v247.5c0 22.745-18.505 41.25-41.25 41.25z" data-original="#ff193d" class=""></path><path fill="#d1320a" d="M398.269 0h-78.75v330h78.75c22.745 0 41.25-18.505 41.25-41.25V41.25c0-22.745-18.505-41.25-41.25-41.25z" data-original="#ea0016" class=""></path><path fill="#fdd1a3" d="M313.307 238.696c-7.33-13.107-19.47-22.556-34.183-26.606-14.826-4.081-30.922-2.041-44.157 5.6-.444.256-.874.537-1.287.84 0 0-154.385 106.832-157.039 109.498a14.146 14.146 0 0 0-4.123 10.039l.863 159.845c.03 7.582 6.033 13.791 13.61 14.078.222.008 1.36.047 3.257.047 8.521 0 32.328-.788 56.871-8.686 42.09-13.545 65.955-40.974 69.098-79.365 1.135-4.424 5.54-21.22 11.485-39.036 12.352-37.015 19.654-43.577 20.37-44.153l44.139-25.483c26.653-15.388 36.116-49.759 21.096-76.618z" data-original="#fdd1a3" class=""></path></g></svg>